<svg id="vector" xmlns="http://www.w3.org/2000/svg" width="108" height="108" viewBox="0 0 108 108"><g transform="translate(20.057142, 20.37143) scale(0.7087745, 0.7087745)" id="g_0"><path fill="#000000" d="m28.56,57.594a22.542,22.542 0,0 1,4.775 -28.811,22.542 22.542,0 0,1 29.204,0.079 22.542,22.542 0,0 1,4.618 28.837" fill-opacity="0" stroke-linecap="round" stroke="#7ada9d" stroke-width="6.61447"/><path fill="#ffb780" d="m47.89,51.594c-1.387,0 -2.503,1.384 -2.503,3.102v11.899l-4.849,-4.849c-0.909,-0.909 -2.373,-0.909 -3.282,0l-0.257,0.257c-0.909,0.909 -0.909,2.373 0,3.282l9.173,9.173c0.466,0.466 1.078,0.692 1.686,0.681 0.011,0 0.022,0.002 0.033,0.002 0.011,0 0.022,-0.001 0.033,-0.002 0.608,0.012 1.22,-0.215 1.686,-0.681l9.173,-9.173c0.909,-0.909 0.909,-2.373 0,-3.282l-0.257,-0.257c-0.909,-0.909 -2.373,-0.909 -3.282,0l-4.849,4.849v-11.899c0,-1.719 -1.116,-3.102 -2.503,-3.102z" fill-opacity="0.964706" stroke-linecap="round" stroke="#000000" stroke-opacity="0" stroke-width="5.40899"/><path fill="#7ada9d" d="M41.407,40.614m-2.249,0a2.249,2.249 0,1 1,4.498 0a2.249,2.249 0,1 1,-4.498 0" fill-opacity="0.964706" stroke-linecap="round" stroke="#000000" stroke-opacity="0" stroke-width="5.42057"/><path fill="#7ada9d" d="M55.166,40.614m-2.249,0a2.249,2.249 0,1 1,4.498 0a2.249,2.249 0,1 1,-4.498 0" fill-opacity="0.964706" stroke-linecap="round" stroke="#000000" stroke-opacity="0" stroke-width="5.42057"/><path fill="#7ada9d" d="M69.466,23.098L69.903,23.535A1.411,1.411 90,0 1,69.903 25.531L65.35,30.083A1.411,1.411 0,0 1,63.355 30.083L62.918,29.647A1.411,1.411 0,0 1,62.918 27.651L67.47,23.098A1.411,1.411 0,0 1,69.466 23.098z" fill-opacity="0.964706" stroke-linecap="round" stroke="#000000" stroke-opacity="0" stroke-width="8.92799"/><path fill="#7ada9d" d="M25.784,23.098L25.347,23.535A1.411,1.411 0,0 0,25.347 25.531L29.9,30.083A1.411,1.411 0,0 0,31.896 30.083L32.332,29.647A1.411,1.411 0,0 0,32.332 27.651L27.78,23.098A1.411,1.411 0,0 0,25.784 23.098z" fill-opacity="0.964706" stroke-linecap="round" stroke="#000000" stroke-opacity="0" stroke-width="8.928"/></g></svg>